<svg xmlns="http://www.w3.org/2000/svg" width="892" height="892" viewBox="0 0 892 892" version="1.1">
	<path d="M 0 446.001 L 0 892.002 446.250 891.751 L 892.500 891.500 892.751 445.750 L 893.002 0 686.251 0.135 C 566.355 0.214, 483.281 0.625, 488.500 1.115 C 617.595 13.230, 735.850 81.392, 810.795 186.882 C 848.983 240.634, 876.324 306.229, 886.915 369.500 C 891.439 396.526, 892.205 409.487, 891.746 451.194 C 891.416 481.153, 890.904 493.354, 889.593 502.500 C 883.883 542.341, 876.282 571.463, 862.316 607 C 817.366 721.377, 728.024 811.603, 614.146 857.626 C 527.728 892.551, 430.884 899.390, 340.710 876.934 C 226.796 848.566, 127.771 775.831, 67.600 676.331 C 30.915 615.669, 9.975 551.153, 3.890 480.044 C 2.159 459.810, 3.300 407.616, 5.892 388.500 C 17.833 300.424, 53.509 220.548, 110.629 154 C 168.650 86.403, 249.330 36.149, 335.354 14.023 C 359.528 7.806, 384.941 3.262, 407.500 1.123 C 412.783 0.623, 330.503 0.214, 208.250 0.135 L 0 0 0 446.001 M 0.496 446.500 C 0.496 691.800, 0.610 792.001, 0.750 669.168 C 0.890 546.336, 0.890 345.636, 0.750 223.168 C 0.610 100.701, 0.496 201.200, 0.496 446.500 M 420.500 64.089 C 404.577 65.377, 385.475 67.971, 372.500 70.607 C 219.673 101.655, 101.500 222.810, 74.504 376.121 C 69.313 405.601, 67.487 445.714, 70.048 474 C 80.191 585.995, 137.185 685.497, 228.561 750.735 C 278.453 786.357, 339.091 809.849, 401 817.542 C 428.766 820.993, 473.647 820.497, 501.500 816.432 C 607.989 800.893, 701.932 741.631, 761.968 652.124 C 819.742 565.989, 839.330 460.248, 816.453 358 C 803.062 298.149, 774.441 241.463, 733.901 194.500 C 723.451 182.393, 700.632 159.988, 689 150.411 C 647.425 116.182, 600.858 91.670, 550.391 77.450 C 508.980 65.781, 460.815 60.827, 420.500 64.089 M 437.596 209.250 C 436.208 210.492, 430.629 220.908, 425.144 232.500 C 419.679 244.050, 411.060 262.050, 405.990 272.500 C 400.920 282.950, 393.952 297.350, 390.505 304.500 C 382.840 320.400, 371.285 344.241, 359 369.500 C 344.926 398.439, 334.632 419.671, 319.244 451.500 C 311.532 467.450, 301.515 488.150, 296.984 497.500 C 276.886 538.968, 272.414 548.213, 266.997 559.500 C 263.829 566.100, 256.029 582.203, 249.663 595.284 C 243.297 608.365, 238.328 619.692, 238.622 620.456 C 238.915 621.220, 239.682 622.033, 240.327 622.263 C 241.761 622.774, 279.896 621.322, 296.793 620.112 C 307.650 619.335, 309.855 618.854, 315.674 615.989 C 323.945 611.917, 335.748 600.902, 341.914 591.500 C 344.439 587.650, 353.253 569.541, 361.502 551.257 L 376.500 518.014 434.601 518.007 L 492.702 518 492.601 515.734 C 492.545 514.488, 485.525 497.845, 477 478.751 L 461.500 444.033 436.250 444.017 C 422.363 444.007, 411 443.809, 411 443.576 C 411 442.738, 433.289 396.274, 438.753 385.722 C 441.822 379.794, 444.821 375.087, 445.417 375.262 C 446.522 375.586, 460.013 401.875, 470.171 423.500 C 484.563 454.137, 503.721 495.798, 528.419 550.164 C 537.081 569.229, 545.817 587.639, 547.834 591.075 C 552.235 598.573, 562.794 609.281, 570.177 613.732 C 579.117 619.122, 587.601 620.659, 612.500 621.398 C 624.600 621.758, 636.788 622.308, 639.584 622.620 C 645.221 623.251, 648.437 621.419, 647.307 618.221 C 646.512 615.970, 641.982 606.308, 620.247 560.500 C 579.914 475.496, 506.245 320.058, 481.186 267.090 C 452.024 205.446, 452.985 207.011, 444.306 207.004 C 441.364 207.001, 439.360 207.672, 437.596 209.250" stroke="none" fill="#000000" fill-rule="evenodd"/>
</svg>
