<?xml version="1.0" standalone="no"?>
<!DOCTYPE svg PUBLIC "-//W3C//DTD SVG 20010904//EN"
 "http://www.w3.org/TR/2001/REC-SVG-20010904/DTD/svg10.dtd">
<svg version="1.0" xmlns="http://www.w3.org/2000/svg"
 width="1024.000000pt" height="1024.000000pt" viewBox="0 0 1024.000000 1024.000000"
 preserveAspectRatio="xMidYMid meet">
<metadata>
Created by potrace 1.16, written by Peter Selinger 2001-2019
</metadata>
<g transform="translate(0.000000,1024.000000) scale(0.100000,-0.100000)"
fill="#000000" stroke="none">
<path d="M0 5120 l0 -5120 5120 0 5120 0 0 5120 0 5120 -5120 0 -5120 0 0
-5120z m5627 4359 c916 -76 1742 -406 2463 -984 244 -195 562 -526 759 -790
467 -624 760 -1358 855 -2140 23 -191 39 -536 32 -705 -82 -2013 -1509 -3722
-3476 -4164 -144 -32 -378 -71 -535 -88 -160 -17 -720 -17 -880 0 -669 73
-1279 274 -1835 605 -1147 683 -1930 1851 -2124 3168 -38 258 -49 453 -43 786
6 370 34 592 118 931 170 695 503 1335 970 1866 125 142 337 353 464 461 729
621 1633 990 2595 1058 115 8 522 6 637 -4z"/>
<path d="M5125 8903 c-837 -41 -1598 -326 -2250 -843 -163 -129 -479 -445
-611 -610 -470 -591 -753 -1284 -829 -2033 -8 -78 -15 -181 -15 -229 l0 -88
899 0 898 0 7 91 c39 516 292 1025 681 1371 295 263 642 429 1055 505 120 22
503 25 625 5 363 -60 660 -185 944 -397 468 -349 773 -904 817 -1485 l7 -90
902 0 903 0 -4 38 c-2 20 -8 105 -14 187 -49 679 -270 1311 -661 1890 -454
672 -1123 1191 -1893 1466 -463 166 -985 246 -1461 222z"/>
<path d="M5130 6519 c-343 -38 -657 -191 -900 -438 -204 -208 -329 -436 -396
-726 -25 -108 -28 -138 -28 -300 0 -202 14 -303 65 -462 171 -533 610 -918
1164 -1020 122 -22 378 -22 500 0 315 58 572 191 798 415 451 444 568 1112
297 1690 -93 198 -275 418 -460 558 -168 128 -435 240 -650 274 -98 15 -295
20 -390 9z m1230 -764 l0 -145 -400 0 -400 0 0 -195 0 -195 350 0 350 0 0
-140 0 -140 -350 0 -350 0 0 -230 0 -230 410 0 410 0 0 -145 0 -145 -585 0
-585 0 0 195 0 195 -268 0 -268 0 -103 -195 -103 -195 -185 0 -185 0 60 113
c32 61 233 446 447 855 l387 742 684 0 684 0 0 -145z"/>
<path d="M5083 5357 c-61 -116 -143 -274 -183 -349 l-72 -138 191 0 191 0 0
350 c0 193 -3 350 -7 350 -5 0 -58 -96 -120 -213z"/>
<path d="M1456 4498 c72 -460 187 -819 390 -1218 417 -819 1129 -1474 1977
-1819 647 -263 1325 -347 2007 -247 864 127 1674 550 2264 1184 527 566 866
1247 995 1996 12 65 21 120 21 122 0 2 -412 4 -915 4 -724 0 -916 -3 -919 -12
-159 -550 -471 -962 -950 -1252 -430 -261 -995 -349 -1507 -236 -701 156
-1279 680 -1504 1365 l-43 130 -910 3 -909 2 3 -22z"/>
</g>
</svg>
